<svg width="30" height="30" viewBox="0 0 30 30" fill="none" xmlns="http://www.w3.org/2000/svg">
<path d="M15 27.25C20.3029 27.25 24.75 23.283 24.75 18.2143C24.75 14.9987 23.0735 11.7857 21.2614 9.22565C19.4289 6.63671 17.3463 4.56161 16.3171 3.59602C15.5717 2.89667 14.4283 2.89667 13.6829 3.59603C12.6537 4.56161 10.5711 6.63671 8.73858 9.22565C6.92655 11.7857 5.25 14.9987 5.25 18.2143C5.25 23.283 9.69709 27.25 15 27.25Z" stroke="#274C77" stroke-width="2"/>
<path d="M15 22.5C14.3434 22.5 13.6932 22.3707 13.0866 22.1194C12.48 21.8681 11.9288 21.4998 11.4645 21.0355C11.0002 20.5712 10.6319 20.02 10.3806 19.4134C10.1293 18.8068 10 18.1566 10 17.5" stroke="#274C77" stroke-width="2" stroke-linecap="round"/>
</svg>
